<svg xmlns="http://www.w3.org/2000/svg" width="360" height="360" viewBox="0 0 360 360">
  <rect width="360" height="360" fill="#0b0a1f"/>
  <rect width="360" height="360" fill="rgba(124,92,255,0.12)"/>

  <rect x="40" y="40" width="40" height="40" fill="#4a4468"/>
  <rect x="120" y="40" width="40" height="40" fill="#4a4468"/>
  <rect x="200" y="40" width="40" height="40" fill="#4a4468"/>
  <rect x="280" y="40" width="40" height="40" fill="#4a4468"/>
  <rect x="40" y="280" width="40" height="40" fill="#4a4468"/>
  <rect x="280" y="280" width="40" height="40" fill="#4a4468"/>

  <rect x="80" y="120" width="36" height="36" fill="#b5651d"/>
  <rect x="240" y="200" width="36" height="36" fill="#b5651d"/>

  <g transform="translate(140,240)">
    <circle r="26" fill="#1f1c33"/>
    <rect x="-2" y="-38" width="4" height="10" fill="#ff8a3d"/>
  </g>
  <g transform="translate(140,240)" opacity="0.85">
    <rect x="-46" y="-8" width="26" height="16" fill="#ff8a3d"/>
    <rect x="20" y="-8" width="26" height="16" fill="#ff8a3d"/>
    <rect x="-8" y="-46" width="16" height="26" fill="#ff8a3d"/>
    <rect x="-8" y="20" width="16" height="26" fill="#ff8a3d"/>
  </g>

  <circle cx="230" cy="120" r="13" fill="#7c5cff"/>
  <circle cx="230" cy="120" r="9" fill="rgba(0,0,0,0.35)"/>
</svg>
