<?xml version="1.0" encoding="utf-8"?>
<!-- Uploaded to: SVG Repo, www.svgrepo.com, Generator: SVG Repo Mixer Tools -->
<svg width="800px" height="800px" viewBox="-0.24 0 60.776 60.776" xmlns="http://www.w3.org/2000/svg">
  <g id="Group_15" data-name="Group 15" transform="translate(-370.218 -429.187)">
    <rect id="Rectangle_16" data-name="Rectangle 16" width="38.312" height="12.726" transform="matrix(0.707, -0.707, 0.707, 0.707, 381.709, 468.995)" fill="#a9afbb"/>
    <rect id="Rectangle_17" data-name="Rectangle 17" width="38.313" height="10.012" transform="translate(382.668 469.954) rotate(-45)" fill="#dce2e9"/>
    <path id="Path_34" data-name="Path 34" d="M390.716,468.986a11.449,11.449,0,0,0-5.859-3.14l-4.209,4.209,1.32,1.32a5.774,5.774,0,0,1,6.358,6.358l1.32,1.32,4.209-4.209A11.459,11.459,0,0,0,390.716,468.986Z" fill="#dce2e9" style="mix-blend-mode: multiply;isolation: isolate"/>
    <path id="Path_35" data-name="Path 35" d="M414.052,454.647l4.806-4.806-9-9-4.806,4.806a21.956,21.956,0,0,0,9,9Z" fill="#dce2e9" style="mix-blend-mode: multiply;isolation: isolate"/>
    <path id="Path_36" data-name="Path 36" d="M429.364,437.8c-1.574,2.79-7.2,12.843-13.752,6.286s3.495-12.179,6.286-13.753c2.856-1.612-10.547-2.315-15.428,3.333s-.193,12.828,3.271,16.291,10.641,8.152,16.289,3.27S430.976,434.947,429.364,437.8Z" fill="#dce2e9"/>
    <g id="Group_11" data-name="Group 11" style="mix-blend-mode: screen;isolation: isolate">
      <path id="Path_37" data-name="Path 37" d="M412.514,447.186c-3.088-3.087-7.231-9.376-3.457-14.5a8.223,8.223,0,0,0-1.333,1.222c-4.51,5.218-.178,11.85,3.021,15.049s9.832,7.533,15.051,3.023a8.32,8.32,0,0,0,1.221-1.335C421.891,454.418,415.6,450.275,412.514,447.186Z" fill="#dce2e9"/>
    </g>
    <path id="Path_38" data-name="Path 38" d="M389.862,469.84a11.507,11.507,0,1,0,0,16.273A11.509,11.509,0,0,0,389.862,469.84Zm-12.226,12.226a5.783,5.783,0,1,1,8.178,0A5.784,5.784,0,0,1,377.636,482.066Z" fill="#dce2e9"/>
    <g id="Group_12" data-name="Group 12" style="mix-blend-mode: screen;isolation: isolate">
      <path id="Path_39" data-name="Path 39" d="M376.048,483.652a10.283,10.283,0,0,1-.8-13.638,10.042,10.042,0,0,0-.911.8,10.289,10.289,0,0,0,14.551,14.55,10.484,10.484,0,0,0,.8-.91A10.284,10.284,0,0,1,376.048,483.652Z" fill="#dce2e9"/>
    </g>
    <g id="Group_13" data-name="Group 13">
      <path id="Path_40" data-name="Path 40" d="M386.46,473.24a6.767,6.767,0,0,1,.527,8.972,6.549,6.549,0,0,0,.6-.527,6.767,6.767,0,1,0-9.569-9.57,6.9,6.9,0,0,0-.528.6A6.766,6.766,0,0,1,386.46,473.24Z" fill="#a9afbb"/>
    </g>
    <path id="Path_41" data-name="Path 41" d="M403.925,462.91l-8.19-7.942-2.5,2.505,7.942,8.189c-1.418,1.553-3.4,3.954-3,4.861l10.61-10.609C407.88,459.514,405.478,461.492,403.925,462.91Z" fill="#dce2e9" style="mix-blend-mode: multiply;isolation: isolate"/>
    <path id="Path_42" data-name="Path 42" d="M415.054,471.617,412,474.67l-30.3-31.243,2.115-2.114Z" fill="#f9fcff"/>
    <path id="Path_43" data-name="Path 43" d="M376.231,431.742c-.8-.1-2.013,1-2.56,1.544s-1.645,1.761-1.545,2.562,4.854,8.156,5.91,8.685,5.446-.1,5.446-.1l1.152-.181.18-1.151s.631-4.389.1-5.447S377.032,431.841,376.231,431.742Z" fill="#f9fcff"/>
    <path id="Path_44" data-name="Path 44" d="M415.175,462.027c-1.823-1.824-3.957-1.513-5.834-1.933s-2.066-.578-1.846-4.682-7.736,3.963-7.736,3.963-8.065,7.954-3.963,7.735,4.264-.031,4.684,1.846.107,4.012,1.931,5.835,13.438,13.693,15.554,14.825c2.081,1.112,5.45-.55,8.495-3.54,2.991-3.043,4.652-6.414,3.54-8.5C428.87,475.465,417,463.852,415.175,462.027Z" fill="#ffc52f"/>
    <g id="Group_14" data-name="Group 14">
      <path id="Path_45" data-name="Path 45" d="M413.987,462.727a1.48,1.48,0,0,0-2.093,0h0a1.479,1.479,0,0,0,0,2.091l12.89,12.889a1.479,1.479,0,0,0,2.092,0h0a1.479,1.479,0,0,0,0-2.091Z" fill="#ca902b"/>
      <path id="Path_46" data-name="Path 46" d="M410.183,464.779a1.477,1.477,0,0,0-2.091,0h0a1.479,1.479,0,0,0,0,2.092l14.639,14.639a1.479,1.479,0,0,0,2.092,0h0a1.478,1.478,0,0,0,0-2.09Z" fill="#ca902b"/>
      <path id="Path_47" data-name="Path 47" d="M407.255,467.707a1.481,1.481,0,0,0-2.092,0h0a1.481,1.481,0,0,0,0,2.092L419.8,484.44a1.482,1.482,0,0,0,2.092,0h0a1.479,1.479,0,0,0,0-2.092Z" fill="#ca902b"/>
      <path id="Path_48" data-name="Path 48" d="M405.2,471.512a1.478,1.478,0,0,0-2.092,0h0a1.478,1.478,0,0,0,0,2.09L416,486.492a1.482,1.482,0,0,0,2.092,0h0a1.48,1.48,0,0,0,0-2.092Z" fill="#ca902b"/>
    </g>
  </g>
</svg>