<?xml version="1.0" encoding="iso-8859-1"?>
<!-- Uploaded to: SVG Repo, www.svgrepo.com, Generator: SVG Repo Mixer Tools -->
<svg version="1.1" id="Layer_1" xmlns="http://www.w3.org/2000/svg" xmlns:xlink="http://www.w3.org/1999/xlink" 
	 viewBox="0 0 512 512" xml:space="preserve">
<path style="fill:#FF9075;" d="M506.126,310.684C509.961,293.063,512,274.771,512,256C512,114.616,397.385,0,256,0
	C114.616,0,0,114.616,0,256c0,116.887,78.34,215.473,185.378,246.128L506.126,310.684z"/>
<path style="fill:#FF7452;" d="M506.126,310.684l-54.691-54.69H343.522v-77.902L229.03,63.599L67.243,383.993l118.135,118.135
	C207.812,508.553,231.503,512,256,512C378.614,512,481.076,425.791,506.126,310.684z"/>
<polygon style="fill:#FFD652;" points="343.521,178.091 256.463,178.091 256.463,356.167 451.435,333.909 451.435,255.993 
	406.913,241.484 "/>
<path style="fill:#FDBA4C;" d="M431.211,333.909c-13.17-13.706-31.659-22.261-52.124-22.261c-20.464,0-38.954,8.555-52.124,22.261
	l-70.502-0.002l33.391,50.087l161.583,0.002v-50.087H431.211z"/>
<polygon style="fill:#F7EDBC;" points="289.841,144.7 289.841,311.645 122.884,333.906 200.799,144.705 "/>
<polygon style="fill:#FFFFFF;" points="67.243,144.7 67.243,311.645 178.537,333.906 178.537,144.7 "/>
<polygon style="fill:#CCCCCC;" points="289.852,311.645 67.243,311.645 67.243,333.906 184.113,361.732 289.852,333.905 "/>
<rect x="67.239" y="333.902" style="fill:#B2B2B2;" width="222.609" height="50.087"/>
<path style="fill:#383838;" d="M139.597,434.082l-30.052-50.087l30.052-50.087c27.618,0,50.087,22.469,50.087,50.087
	C189.684,411.613,167.216,434.082,139.597,434.082z"/>
<path style="fill:#4C4C4C;" d="M89.51,383.996c0,27.618,22.469,50.087,50.087,50.087V333.907
	C111.979,333.909,89.51,356.378,89.51,383.996z"/>
<path style="fill:#CCCCCC;" d="M139.597,411.822l-16.696-27.826l16.696-27.826c15.343,0,27.826,12.483,27.826,27.826
	C167.423,399.339,154.94,411.822,139.597,411.822z"/>
<path style="fill:#FFFFFF;" d="M111.771,383.996c0,15.343,12.483,27.826,27.826,27.826v-55.652
	C124.253,356.169,111.771,368.652,111.771,383.996z"/>
<path style="fill:#383838;" d="M379.087,434.082l-30.052-50.087l30.052-50.087c27.618,0,50.087,22.469,50.087,50.087
	C429.174,411.613,406.705,434.082,379.087,434.082z"/>
<path style="fill:#4C4C4C;" d="M328.999,383.996c0,27.618,22.469,50.087,50.087,50.087V333.907
	C351.468,333.909,328.999,356.378,328.999,383.996z"/>
<path style="fill:#CCCCCC;" d="M379.087,411.819l-16.696-27.826l16.696-27.826c15.343,0,27.826,12.483,27.826,27.826
	C406.913,399.337,394.43,411.819,379.087,411.819z"/>
<path style="fill:#FFFFFF;" d="M351.261,383.993c0,15.343,12.483,27.826,27.826,27.826v-55.652
	C363.744,356.167,351.261,368.65,351.261,383.993z"/>
<polygon style="fill:#D33734;" points="154.123,105.286 178.885,215.425 206.711,243.251 206.711,105.286 "/>
<polygon style="fill:#E24642;" points="178.857,105.286 151.059,105.286 151.059,243.251 178.885,215.425 "/>
<path style="fill:#D33734;" d="M186.799,63.242c-5.912,5.912-8.781,13.727-8.626,21.527l-11.382,29.995l11.746,29.995l38.683-21.65
	l20.797-37.832c0.099-7.845-2.862-15.753-8.887-21.778C217.371,51.739,198.417,51.624,186.799,63.242z"/>
<g>
	<path style="fill:#E24642;" d="M259.794,94.163c11.76,11.76,11.875,30.713,0.257,42.332c-5.912,5.912-13.727,8.362-21.525,8.211
		h-59.99l59.48-59.429C245.861,85.178,253.773,88.141,259.794,94.163z"/>
	<path style="fill:#E24642;" d="M170.275,63.242c5.912,5.912,8.781,13.727,8.626,21.527l-0.364,59.99l-38.683-21.65l-20.797-37.832
		c-0.099-7.845,2.862-15.753,8.887-21.778C139.703,51.739,158.657,51.624,170.275,63.242z"/>
</g>
<path style="fill:#F15D4A;" d="M97.279,94.163c-11.76,11.76-11.875,30.713-0.257,42.332c5.912,5.912,13.726,8.362,21.525,8.211
	h59.99l-59.48-59.429C111.212,85.178,103.3,88.141,97.279,94.163z"/>
</svg>